<svg width="420" height="120" viewBox="0 0 420 120" xmlns="http://www.w3.org/2000/svg" role="img" aria-label="Centertech">
  <rect width="420" height="120" fill="none"/>
  <g fill="#ffffff" transform="translate(10 8)">
    <path d="M58.4 21.7c5.4-6 9.2-14.1 8.2-22.2-7.1.3-15.6 5-20.6 10.9-4.5 5.4-8.6 13.6-7.5 21.7 8 .6 16.2-4.3 19.9-10.4z"/>
    <path d="M86.7 70.8c-3.2 7.3-4.8 10.6-9.1 17.1-5.9 9.2-14.3 20.3-24.6 20.3-9.1.1-11.6-5.9-24.1-5.8-12.5.1-15 5.9-24.2 5.8-10.5-.1-17.6-10.3-23.6-19.4C-36.7 58.4-30.6 19.5-5 19.7c10.4.1 17.3 7.1 23.2 7.1 6 0 15-8.7 25.5-7.4 4.3.1 16.6 1.7 24.4 13.3-.9.7-14.4 8.5-14.2 25.5.2 20.2 17.7 26.9 18.8 27.3z"/>
  </g>
  <text x="120" y="60" fill="#ffffff" font-family="'Inter', 'Helvetica Neue', Arial, sans-serif" font-size="45" font-weight="600" letter-spacing="-0.5">Centertech</text>
  <text x="120" y="90" fill="#ffffff" font-family="'Inter', 'Helvetica Neue', Arial, sans-serif" font-size="15" letter-spacing="4">ASSISTÊNCIA TÉCNICA &amp; ACESSÓRIOS</text>
</svg>
